PathFileType	4	(X/Y/Z)	Apose_0-50.trc
DataRate	CameraRate	NumFrames	NumMarkers	Units	OrigDataRate	OrigDataStartFrame	OrigNumFrames
30	30	6	22	m	30	20	50
Frame#	Time	Hip			RHip			RKnee			RAnkle			RBigToe			RSmallToe			RHeel			LHip			LKnee			LAnkle			LBigToe			LSmallToe			LHeel			Neck			Head			Nose			RShoulder			RElbow			RWrist			LShoulder			LElbow			LWrist		
		X1	Y1	Z1	X2	Y2	Z2	X3	Y3	Z3	X4	Y4	Z4	X5	Y5	Z5	X6	Y6	Z6	X7	Y7	Z7	X8	Y8	Z8	X9	Y9	Z9	X10	Y10	Z10	X11	Y11	Z11	X12	Y12	Z12	X13	Y13	Z13	X14	Y14	Z14	X15	Y15	Z15	X16	Y16	Z16	X17	Y17	Z17	X18	Y18	Z18	X19	Y19	Z19	X20	Y20	Z20	X21	Y21	Z21	X22	Y22	Z22
21	0.7	0.03828722025064287	0.922283941995026	0.355214013405051	0.03149522348711368	0.891823300917432	0.47237169305033727	0.004624156064144369	0.5122867220391101	0.5019495004042728	-0.006064250994002437	0.10614016625958501	0.5166618175786686	0.18520708640085262	0.03372376905235447	0.5485642382425294	0.1438233872682497	0.03978605507341774	0.6166742759825081	-0.04558643913124487	0.04653563855399183	0.5079642312933721	0.03045819695372537	0.8903497982341962	0.24561969218352492	0.015717060116130548	0.5138584058076167	0.2249410189157951	0.004843106087469669	0.11002642659939212	0.20712651733604495	0.2163952149189624	0.044165278855893594	0.18254938372291357	0.16581552003905628	0.04246579070700446	0.13025862423248627	-0.030857963371038865	0.04590378006538325	0.22603190763998088	0.07001651172105246	1.594898118264281	0.3549029035760015	0.2483302129937093	1.7603550399619718	0.32993583385199343	0.2357189277940518	1.5829520920397464	0.3233645264864867	0.02943809416712248	1.4985056970079613	0.5392210801920696	0.060968811820005686	1.245523765519802	0.7152356653741986	0.12213135473049633	1.0539025792512813	0.8934106733663291	0.017082231607470008	1.4819884254420435	0.13974472117463932	0.020741214673001187	1.2304362637692985	0.0028855590826621998	0.07666783324253265	1.0184294205208866	-0.14661910738452305
22	0.7333333333333333	0.04132152447426978	0.9215216484836676	0.35760630933225734	0.030884639495846657	0.889726304686976	0.471393066297562	0.00539543493145851	0.512640494455502	0.5011576574203029	-0.006714487493382093	0.10510389617054247	0.5168725945103456	0.18577423899595633	0.03394433003628266	0.5475900009864372	0.14483790336134886	0.040540126932081866	0.6155110899271478	-0.04554523629954427	0.0452071188651376	0.5073198535022845	0.03033496262050849	0.8896258739474849	0.24515570481187438	0.01574770169026406	0.5129140834525184	0.22383680316055024	0.003957151919945178	0.11103502937956893	0.20797833006999952	0.2169282787365722	0.044443210140273054	0.1816570004332913	0.16466472879737123	0.042356025165323996	0.1306983072350471	-0.029825390701030487	0.04634240491666919	0.2252885151257084	0.07066240607301928	1.5950958913458164	0.3542322955209885	0.24913329295900566	1.7742929227268172	0.3348512220554502	0.2364438935708559	1.5835302069703012	0.32212895132811153	0.02951239771109001	1.4972550945617487	0.5379317449957609	0.06145253378465926	1.2457976403990583	0.7143638988954993	0.12406540091646805	1.0527442730190568	0.8913937988162075	0.01480835346594788	1.4824332301744925	0.14149162496319417	0.021343141982910672	1.2293812657962504	0.0013900339390212231	0.07783236162349934	1.0190428221619237	-0.14775608316602265
23	0.7666666666666667	0.0401967684037951	0.9203905094524116	0.35694798735303024	0.031286599845299246	0.889890856001238	0.4723727036325476	0.007519550599526625	0.5102587361738877	0.5011914710029745	-0.005911019286308192	0.1057096147993797	0.5168846837384227	0.18757390178823055	0.034642515926067555	0.5462147829226544	0.1450870649305079	0.04163965995370082	0.6162622365226436	-0.03872337150779849	0.03971714922766603	0.49876031405536103	0.031551672989123154	0.8895009894555387	0.2464512858714262	0.016667836186600338	0.5136556282457795	0.22381094858840525	0.0038442351459890326	0.1122349185004421	0.20830735287276136	0.21523656826489876	0.04429805274718578	0.18311846218232794	0.16466866174542583	0.042675421132601414	0.1306154505144442	-0.02998180569845433	0.047317373936299215	0.22546799609628568	0.07106782342136737	1.5955461231758465	0.35516360250805934	0.24607293614693174	1.7646113766094744	0.3329218963446123	0.23623029115207958	1.5834553803960605	0.32348311234500415	0.0279744685134674	1.4977231549251104	0.540347167271011	0.06126838272753407	1.2447632969350333	0.7156011754557932	0.12617857871887841	1.0525978735193922	0.8914449467805515	0.015077482031688513	1.4798630821450514	0.14217228634920698	0.02446324339231159	1.2285529166909215	-0.0012136578606652614	0.08243602435368465	1.0187223635773055	-0.1494226756852691
24	0.8	0.04117347145289661	0.9200722957826123	0.3580253331395736	0.031045674465965598	0.889644014450532	0.4721442290010221	0.007074141012743783	0.5099236695653181	0.5007422295215183	-0.006465458807777437	0.10532044543690247	0.5168430085710007	0.20025961120353342	0.04397946100807754	0.562790892963321	0.1451693391943016	0.04106090308422347	0.6156713400284949	-0.039256401710567754	0.039284660169798306	0.4986752987661008	0.031263097386848016	0.8893166251159668	0.24618277160632568	0.019443156290868756	0.5110153024686859	0.2242364453503164	0.0034156300905165164	0.11176119269556208	0.20774375287219224	0.21636473396377248	0.04612770680268919	0.18230756914040339	0.16472457520347314	0.04222886044309777	0.13054705894777957	-0.030427534832421856	0.046866121607642725	0.22501708397571712	0.07059280396079427	1.595427333705121	0.35460475189398094	0.24645953783642394	1.7645651304015015	0.33262322542417144	0.23673367114194563	1.5853683598807553	0.3238099691778183	0.026497907923996374	1.497654623613514	0.5359010278438314	0.06144196780942021	1.245781255124711	0.7152428406164489	0.12408416574696983	1.0525998310348952	0.8923895450495114	0.015987286793665453	1.4823256308724535	0.14366753007070757	0.02228486704836919	1.2296598279879722	0.0006236758696023648	0.08246000495114619	1.0184293692609467	-0.15009920206393768
25	0.8333333333333334	0.03911710139173543	0.9225646911967937	0.3549674862255596	0.031554225612438036	0.8877315407769865	0.46559651570645655	0.005566721602831685	0.5079449101853379	0.49836892186605997	-0.011341280897087197	0.10555446609158133	0.5173568596393652	0.2014054799233465	0.044258840791679924	0.5609933452228937	0.1417712840110346	0.040858828524460475	0.6149582905184171	-0.04223089847302605	0.03882111159649289	0.5008846757514993	0.03405225042421756	0.8878327805409355	0.2446604371475232	0.017979087099355907	0.5097722997273874	0.224319001075652	0.00690799852680043	0.11089786452261823	0.2104270863272981	0.2169248042173969	0.04720289007996659	0.1817372587005605	0.16461832515310867	0.045019688486754424	0.13058556962578297	-0.032472450690092566	0.04895139639283163	0.22642489404565233	0.06863181937552171	1.5972431378066905	0.354318684939486	0.24120242869844763	1.7631925527847603	0.3329198471026393	0.24255047880743558	1.588552391716847	0.3234535297970429	0.02529324992720339	1.4980419419924678	0.5399153012356206	0.06175579426658411	1.2425280885373533	0.7144189014238358	0.1261776778390839	1.0514761896483302	0.8920928899246885	0.016586444260571574	1.481342419305771	0.14168942505496276	0.02482489673412744	1.2274394368899377	0.000823479123628709	0.08520533153684491	1.0182372390106134	-0.15304298298428765
26	0.8666666666666667	0.039551551386644485	0.9230105360812336	0.35496576164033034	0.033720963266796466	0.8881543800927649	0.466956062474387	0.005923222779078231	0.508555517159323	0.4982160372786241	-0.008021426153520434	0.10633570248305128	0.5146793939692048	0.200782444574062	0.04291793216560437	0.5614360210652675	0.14502723763595193	0.0416055555731158	0.6125317841454699	-0.041491681286238966	0.039613173254094136	0.5006092908593976	0.03468081197902317	0.8882685778865567	0.24464523925359588	0.018655830206790708	0.5103281644074423	0.22424972219569175	0.004247848065341324	0.11408618575827026	0.21101306490689037	0.2158112973109042	0.04695478897600062	0.18329639923953292	0.16420739001835544	0.042892702361072156	0.1320952649123632	-0.03192909428526922	0.04957210890124626	0.2262641175710064	0.06839126615145906	1.5963249843271892	0.3540665783335852	0.24179302438508415	1.7635236472542506	0.3328890837340642	0.24028775917492612	1.5885176308230298	0.3263804563547932	0.024971790083475214	1.4969973777353354	0.5392309350501642	0.06177564865956666	1.2430144450142502	0.7142128388932255	0.12501508028493463	1.0540347392145444	0.8918275854868959	0.020412729805550044	1.4816778960899637	0.1388575588354021	0.02404017137197154	1.2281381457256115	-0.003076270870059026	0.08173697135208217	1.0169313176020809	-0.15000671735005117
